<?xml version="1.0" standalone="no"?>
<!DOCTYPE svg PUBLIC "-//W3C//DTD SVG 20010904//EN"
 "http://www.w3.org/TR/2001/REC-SVG-20010904/DTD/svg10.dtd">
<svg version="1.0" xmlns="http://www.w3.org/2000/svg"
 width="700.000000pt" height="700.000000pt" viewBox="0 0 700.000000 700.000000"
 preserveAspectRatio="xMidYMid meet">
<metadata>
Created by potrace 1.11, written by Peter Selinger 2001-2013
</metadata>
<g transform="translate(0.000000,700.000000) scale(0.100000,-0.100000)"
fill="#000000" stroke="none">
<path d="M3298 6715 c-2 -1 -41 -6 -88 -9 -47 -3 -96 -8 -110 -10 -14 -3 -43
-7 -65 -11 -685 -100 -1307 -410 -1795 -895 -375 -372 -639 -798 -800 -1290
-34 -105 -83 -287 -94 -350 -2 -14 -11 -65 -20 -115 -32 -171 -43 -334 -40
-575 2 -129 6 -255 9 -280 14 -115 46 -318 55 -351 6 -20 14 -57 19 -80 5 -24
19 -78 31 -119 12 -41 23 -82 25 -90 2 -8 18 -55 35 -105 424 -1192 1497
-2028 2748 -2142 162 -15 543 -8 687 12 17 2 48 6 70 9 40 6 78 12 125 21 14
3 39 8 55 11 272 47 646 187 933 348 147 82 385 246 468 321 6 5 36 30 65 55
177 148 399 398 551 620 270 394 467 901 524 1345 3 22 7 49 9 60 26 128 27
614 1 805 -5 36 -19 121 -21 130 0 3 -5 28 -9 55 -13 81 -52 242 -90 367 -111
366 -309 741 -556 1052 -101 127 -307 342 -419 435 -30 25 -59 50 -65 56 -6 6
-54 42 -106 81 -409 306 -872 506 -1368 594 -59 10 -134 22 -167 25 -33 4 -73
9 -90 12 -35 5 -502 12 -507 8z m482 -498 c14 -3 48 -8 75 -11 65 -8 105 -15
190 -32 128 -26 102 -19 270 -70 301 -90 646 -274 899 -479 l37 -29 -672 -672
-672 -672 -26 25 c-78 74 -189 123 -282 123 -40 0 -49 4 -64 28 -10 15 -29 36
-42 47 l-25 21 36 65 c232 422 30 941 -426 1093 -245 82 -512 34 -720 -129
-176 -138 -287 -372 -282 -597 2 -111 8 -151 39 -240 76 -222 261 -406 477
-477 176 -57 332 -54 512 9 33 11 60 19 61 18 28 -52 34 -86 22 -126 l-13 -42
-109 -4 c-61 -3 -117 -7 -125 -10 -13 -4 -46 -8 -201 -21 -44 -4 -152 -15
-199 -20 -19 -2 -62 -7 -95 -10 -133 -14 -201 -53 -247 -145 -82 -165 45 -351
237 -345 54 2 196 14 227 20 10 2 51 7 91 10 83 7 132 12 202 20 113 12 165
16 165 10 0 -13 -164 -235 -174 -236 -6 0 -141 -2 -301 -3 -273 -2 -292 -3
-330 -23 -94 -50 -141 -125 -139 -228 1 -74 27 -129 84 -178 47 -40 100 -57
182 -60 l58 -2 -548 -548 -547 -548 -23 28 c-51 61 -177 243 -228 330 -140
236 -236 470 -298 721 -33 133 -39 162 -51 247 -4 22 -8 51 -11 65 -25 149
-26 585 0 715 2 11 7 42 10 68 4 26 11 71 17 100 6 29 12 63 15 77 11 58 69
252 101 340 184 496 502 923 925 1243 245 184 540 335 834 426 55 17 109 33
120 35 10 3 51 11 89 20 110 24 242 45 335 52 47 4 87 8 89 10 6 5 421 -4 451
-9z m-816 -893 c183 -57 295 -224 284 -419 -8 -129 -61 -222 -179 -314 -82
-64 -248 -87 -359 -49 -161 54 -272 195 -284 360 -21 289 260 509 538 422z
m2719 -188 c219 -291 392 -657 468 -986 6 -25 13 -54 15 -65 4 -17 19 -97 39
-215 34 -192 24 -639 -20 -862 -3 -16 -7 -38 -9 -50 -44 -240 -183 -608 -305
-808 -11 -19 -24 -42 -28 -50 -3 -8 -29 -49 -56 -90 -173 -261 -377 -482 -613
-663 -54 -43 -103 -81 -109 -85 -5 -4 -59 -39 -119 -76 -356 -224 -773 -365
-1191 -404 -148 -13 -596 -5 -625 13 -3 1 -27 6 -53 9 -167 23 -401 86 -579
157 -256 102 -467 225 -717 418 l-32 24 764 766 c420 421 770 777 777 790 6
13 57 87 112 164 70 97 103 135 109 126 119 -214 180 -326 182 -336 1 -7 -70
-65 -158 -128 -88 -64 -167 -121 -175 -128 -8 -7 -78 -58 -155 -114 -77 -56
-153 -115 -169 -132 -59 -62 -77 -179 -39 -260 9 -19 65 -119 125 -223 59
-104 108 -190 108 -193 0 -2 29 -52 63 -112 35 -59 119 -207 187 -328 134
-239 183 -301 256 -323 124 -37 239 12 294 123 46 96 35 166 -48 310 -43 74
-111 194 -140 245 -14 25 -42 76 -63 113 -22 38 -39 71 -39 75 0 3 -6 13 -14
21 -7 9 -29 45 -49 81 -19 36 -58 105 -85 154 l-50 88 237 173 237 173 49 -13
c28 -7 86 -12 131 -10 70 2 92 8 157 38 153 74 236 210 237 389 0 88 -19 137
-131 339 -50 90 -115 207 -144 260 -30 54 -71 128 -92 165 -21 38 -44 80 -51
94 -12 24 4 41 705 742 395 395 721 714 725 710 5 -5 41 -52 81 -106z"/>
<path d="M4673 2743 c-22 -8 -15 -51 10 -59 28 -9 413 -10 450 0 29 7 37 36
15 54 -13 10 -450 15 -475 5z"/>
<path d="M4593 2593 c-7 -2 -13 -15 -13 -27 0 -15 31 -48 106 -111 59 -50 112
-95 118 -100 87 -80 137 -104 149 -72 5 15 -9 57 -20 57 -4 0 -24 15 -44 33
-45 41 -205 176 -243 205 -30 23 -33 24 -53 15z"/>
<path d="M4464 2475 c-3 -8 3 -43 14 -77 44 -136 132 -382 141 -391 5 -5 21
-7 35 -3 29 7 29 17 -10 126 -14 41 -46 133 -71 205 -24 71 -49 135 -55 142
-14 18 -47 16 -54 -2z"/>
</g>
</svg>
